<svg width="42" height="50" viewBox="0 0 42 50" fill="none" xmlns="http://www.w3.org/2000/svg">
<path id="Vector" d="M22.2243 0C27.3196 7.5213 20.2839 15.3106 15.5286 6.20268C18.3997 21.4024 8.66831 23.7002 7.66587 14.0654C-0.0710611 20.9086 1.42218 29.5458 5.51606 36.2336L10.3383 33.4626C9.07559 31.5357 8.44542 28.9919 8.72784 26.4973C11.4299 30.6448 19.9676 27.5584 18.944 20.1926C20.069 23.5663 22.9203 23.2398 25.8633 18.0362C21.8604 28.8406 28.159 35.8488 32.3751 32.6145C32.5297 33.8736 32.0648 35.3133 31.2609 36.6183L36.2014 37.9363C41.9995 32.9396 44.5858 23.634 35.8004 19.4728C39.9111 25.8343 34.4224 30.5242 29.4134 23.8347C25.3589 16.2472 38.0773 11.9071 22.2246 0H22.2243ZM10.9005 2.59665C4.15504 5.99767 9.36033 8.96152 9.42471 12.3101C14.0658 8.21459 9.0332 6.6818 10.9005 2.59665ZM18.7338 30.9019L0.5 41.3844C0.785057 43.3188 1.44458 45.0046 2.47889 46.486L12.1561 41.8511L3.87914 48.1492C4.23572 48.5047 4.61892 48.8456 5.02968 49.1748L12.8889 44.6585C12.8865 44.5808 12.8826 44.5033 12.8826 44.425C12.8826 40.5099 16.0903 37.3185 20.0154 37.3185C21.0877 37.3173 22.1464 37.5589 23.1121 38.0251C22.8677 36.6141 22.3463 35.1741 21.5637 33.8933L11.5775 38.1138L20.2523 32.1742C19.7957 31.6956 19.2881 31.2654 18.7336 30.9021L18.7338 30.9019ZM24.9266 36.9632C25.0959 37.7151 25.2 38.4689 25.2387 39.2049L25.2618 39.6192C26.4325 40.8858 27.1485 42.5739 27.1485 44.4249C27.1486 45.2221 27.013 46.0135 26.7475 46.7653L36.3558 49.3293C36.8441 48.6638 37.2591 47.9863 37.6016 47.2913L30.9582 44.6947L38.3345 45.4146C38.4255 45.1045 38.5038 44.7915 38.568 44.4744L28.3582 40.8749L38.7881 42.5021C38.8045 41.895 38.7773 41.2746 38.7026 40.6382L24.9266 36.9635V36.9632ZM20.0154 39.2838C17.148 39.2838 14.8482 41.5769 14.8482 44.4249C14.8482 47.2731 17.148 49.566 20.0155 49.566C22.8832 49.566 25.1829 47.2731 25.1829 44.425C25.1829 41.577 22.8832 39.284 20.0156 39.284L20.0154 39.2838ZM19.4962 40.5229C24.1011 40.5231 25.6428 48.0538 19.4962 48.0538C22.2965 45.6226 22.6318 43.1218 19.4962 40.5233V40.5229ZM19.5158 41.5585C17.2421 43.443 17.4853 45.2587 19.5158 47.0219C15.0585 47.0219 16.1767 41.5585 19.5158 41.5585Z" fill="black"/>
</svg>
