<svg width="50" height="50" viewBox="0 0 50 50" fill="none" xmlns="http://www.w3.org/2000/svg">
<g id="emojione-monotone:fork-and-knife-with-plate">
<path id="Vector" d="M25.5851 36.6562C32.3414 36.6562 37.8305 31.4742 38.0641 25C37.8305 18.5258 32.3414 13.3438 25.5851 13.3438C18.8289 13.3438 13.3391 18.5258 13.1086 25C13.3383 31.4742 18.8289 36.6562 25.5851 36.6562Z" fill="black"/>
<path id="Vector_2" d="M25.5859 7.8125C16.0937 7.8125 8.39764 15.5078 8.39764 25C8.39764 34.4914 16.0945 42.1875 25.5859 42.1875C35.0773 42.1875 42.7734 34.4914 42.7734 25C42.7734 15.5078 35.0773 7.8125 25.5859 7.8125ZM25.5851 37.5C18.6812 37.5 13.0844 32.093 13.0844 25.4211C13.0844 25.2789 13.1039 25.1406 13.1086 25C13.1039 24.8594 13.0844 24.7203 13.0844 24.5789C13.0844 17.907 18.682 12.5 25.5851 12.5C32.4883 12.5 38.0851 17.907 38.0851 24.5789C38.0851 24.7203 38.0687 24.8594 38.0648 25C38.0695 25.1406 38.0851 25.2789 38.0851 25.4211C38.0844 32.093 32.489 37.5 25.5851 37.5Z" fill="black"/>
<path id="Vector_3" d="M2.71956 5.79773C2.90706 5.06257 3.27815 5.78914 3.27815 5.78914C3.27815 5.78914 3.40784 13.3985 4.25159 13.4813C5.09534 13.5641 4.44534 5.65164 5.44378 5.50007C6.3719 5.35242 5.84222 13.6071 6.68753 13.5235C7.52972 13.4344 7.6719 5.8282 7.6719 5.8282C7.6719 5.8282 8.0469 5.10242 8.23206 5.8321C10.5196 14.8243 8.66878 18.5001 8.66878 18.5001C8.66878 18.5001 8.35628 19.2727 7.61409 19.2766C7.54456 19.2727 7.5969 40.6329 7.59222 43.5048C7.59378 44.9009 3.29534 44.8579 3.29769 43.468C3.30081 40.5962 3.3844 19.2384 3.31722 19.2399C2.57268 19.2399 2.26097 18.468 2.26097 18.468C2.26097 18.468 0.417216 14.7946 2.71956 5.79773ZM43.4532 5.46882C44.4203 5.46648 48.4328 8.35945 48.4375 19.111C48.4422 22.5493 46.5664 22.5485 46.5696 24.6993C46.5727 26.8462 46.5844 43.9227 46.5844 43.9227C46.5844 43.9227 44.5266 45.3344 42.9969 43.8571L42.9688 5.77429C42.9703 5.77507 42.9649 5.46804 43.4532 5.46882Z" fill="black"/>
</g>
</svg>
