<svg width="51" height="50" viewBox="0 0 51 50" fill="none" xmlns="http://www.w3.org/2000/svg">
<g id="bi:tree-fill">
<path id="Vector" d="M26.8 0.696869C26.6573 0.482872 26.464 0.30741 26.2372 0.186055C26.0104 0.0647005 25.7572 0.00120544 25.5 0.00120544C25.2428 0.00120544 24.9896 0.0647005 24.7628 0.186055C24.536 0.30741 24.3427 0.482872 24.2 0.696869L14.825 14.7594C14.6684 14.9947 14.5786 15.268 14.5651 15.5503C14.5516 15.8326 14.6149 16.1133 14.7483 16.3625C14.8817 16.6117 15.0802 16.82 15.3226 16.9653C15.5651 17.1105 15.8424 17.1873 16.125 17.1875H16.4313L10.1125 27.2969C9.96468 27.5334 9.88287 27.8052 9.87554 28.084C9.86822 28.3628 9.93567 28.6385 10.0709 28.8824C10.2061 29.1264 10.4041 29.3297 10.6444 29.4713C10.8848 29.6128 11.1586 29.6875 11.4375 29.6875H12.0344L6.91563 39.925C6.79626 40.1632 6.7398 40.428 6.75159 40.6942C6.76339 40.9604 6.84307 41.2191 6.98304 41.4458C7.12302 41.6726 7.31865 41.8597 7.55135 41.9895C7.78404 42.1193 8.04606 42.1875 8.31251 42.1875H22.375V50H28.625V42.1875H42.6875C42.954 42.1875 43.216 42.1193 43.4487 41.9895C43.6814 41.8597 43.877 41.6726 44.017 41.4458C44.157 41.2191 44.2366 40.9604 44.2484 40.6942C44.2602 40.428 44.2038 40.1632 44.0844 39.925L38.9688 29.6875H39.5656C39.8446 29.6875 40.1184 29.6128 40.3587 29.4713C40.599 29.3297 40.7971 29.1264 40.9323 28.8824C41.0675 28.6385 41.1349 28.3628 41.1276 28.084C41.1203 27.8052 41.0385 27.5334 40.8906 27.2969L34.5688 17.1875H34.875C35.1576 17.1873 35.4349 17.1105 35.6774 16.9653C35.9198 16.82 36.1183 16.6117 36.2517 16.3625C36.3851 16.1133 36.4484 15.8326 36.4349 15.5503C36.4214 15.268 36.3316 14.9947 36.175 14.7594L26.8 0.696869Z" fill="black"/>
</g>
</svg>
