<svg width="51" height="50" viewBox="0 0 51 50" fill="none" xmlns="http://www.w3.org/2000/svg">
<g id="simple-icons:librewolf" clip-path="url(#clip0_2_991)">
<path id="Vector" d="M25.5 0C11.6937 0 0.5 11.1937 0.5 25C0.5 38.8062 11.6937 50 25.5 50C39.3062 50 50.5 38.8062 50.5 25C50.5 18.3696 47.8661 12.0107 43.1777 7.32233C38.4893 2.63392 32.1304 0 25.5 0ZM25.5625 5.03542C30.8542 5.03542 35.5479 6.93125 39.3542 10.6021C41.1875 12.3729 42.4167 14.0479 43.4688 16.2167C44.8917 19.1521 45.4687 21.7042 45.4687 25.0708C45.4687 29.5063 44.1875 33.3729 41.5292 36.9708C40.5316 38.2581 39.4064 39.4412 38.1708 40.5021C35.3118 42.8238 31.8726 44.3201 28.225 44.8292C26.9958 44.9917 24.0958 45.0104 22.9687 44.8667C19.4667 44.4167 16.1167 43.0208 13.1937 40.7917C12.2396 40.0646 10.4521 38.2646 9.67083 37.2458C7.48333 34.3937 6.12292 31.1562 5.675 27.7333C5.48333 26.2687 5.48333 23.575 5.675 22.2354C6.64167 15.5417 10.8542 9.80208 16.9042 6.93333C19.7167 5.6 22.2937 5.0375 25.5646 5.0375M25.4979 8.05833C22.5385 8.02638 19.6247 8.789 17.0604 10.2667C14.6333 11.6354 12.1229 14.1479 10.7479 16.5875C9.72536 18.4099 9.03344 20.3989 8.70417 22.4625C8.51458 23.7396 8.51042 26.275 8.69583 27.4979C9.07113 29.9595 9.97365 32.3111 11.3417 34.3917C12.0771 35.4979 12.0542 35.4875 12.7021 35.1167C13.8625 34.4521 14.1646 34.1312 14.7958 32.8937C15.5354 31.4458 16.325 30.1812 17.0375 29.3042C17.8625 28.2896 17.975 28.1104 18.3875 27.1521C18.5958 26.6708 18.9708 25.9646 19.2167 25.5792L19.6687 24.8833L19.0854 24.3104C18.3104 23.55 17.6646 22.6854 17.5437 22.2479C17.4187 21.7979 17.5667 21.5479 18.1479 21.2104C18.7375 20.8708 19.1583 20.7729 20.7313 20.6125C21.4979 20.5333 22.3292 20.3896 22.5917 20.2896C22.8521 20.1917 23.6292 19.7667 24.3208 19.3479C26.3167 18.1396 26.4854 18.0771 27.6812 18.1021C28.6917 18.1229 28.6937 18.1229 29.2917 17.7604C30.5479 17.0021 32.3521 15.6333 34.7229 13.6354C35.1792 13.2542 35.6167 12.9521 35.6979 12.9687C36.0312 13.0312 36.65 14.5458 36.7437 15.5333C36.8 16.1333 36.6833 16.7271 36.3271 17.6542C36.2313 17.9083 36.1875 18.15 36.2292 18.1917C36.3312 18.2938 36.6792 17.8583 36.6792 17.6292C36.6792 17.3375 36.8729 17.3042 37.1354 17.55C37.325 17.7292 37.4896 17.7792 37.8729 17.7792C38.2917 17.7792 38.3937 17.8208 38.5583 18.0375C38.8354 18.4062 38.9 19.4146 38.6896 20.0542C38.4812 20.675 37.8562 21.3917 37.2937 21.6583C36.7854 21.8958 35.7604 22.8979 35.2792 23.6229C35.0104 24.043 34.7554 24.4717 34.5146 24.9083C34.2771 25.3396 33.8792 25.9875 33.6292 26.3521C33.1396 27.0687 32.7188 28.0667 32.3146 29.4812C32.075 30.3104 32.0562 30.5271 32.0458 32.3792C32.0333 34.6187 31.9187 35.1667 31.3125 35.8563C30.625 36.6396 29.9375 38.3604 29.8812 39.4458C29.8535 40.0701 29.7557 40.6893 29.5896 41.2917C29.5229 41.5083 29.6458 41.5062 30.3813 41.275C32.3997 40.6617 34.2871 39.6799 35.9479 38.3792C36.8437 37.6833 38.3896 36.1208 39.0375 35.2604C40.7979 32.9271 41.9958 30.0042 42.3458 27.1812C42.5167 25.8208 42.4188 22.9437 42.1583 21.6958C41.4708 18.3896 39.9937 15.5958 37.6667 13.2042C36.2146 11.7146 34.8937 10.7312 33.1917 9.87917C30.6125 8.5875 28.4 8.06042 25.4979 8.05833ZM28.6562 19.1312L27.2062 19.3333L26.3042 20.4896L27.7542 20.2854L28.6562 19.1312Z" fill="black"/>
</g>
<defs>
<clipPath id="clip0_2_991">
<rect width="50" height="50" fill="white" transform="translate(0.5)"/>
</clipPath>
</defs>
</svg>
