<?xml version="1.0" encoding="UTF-8" standalone="no"?>
<!-- Created with Inkscape (http://www.inkscape.org/) -->
<svg xmlns:dc="http://purl.org/dc/elements/1.1/" xmlns:cc="http://web.resource.org/cc/" xmlns:rdf="http://www.w3.org/1999/02/22-rdf-syntax-ns#" xmlns:svg="http://www.w3.org/2000/svg" xmlns="http://www.w3.org/2000/svg" xmlns:sodipodi="http://sodipodi.sourceforge.net/DTD/sodipodi-0.dtd" xmlns:inkscape="http://www.inkscape.org/namespaces/inkscape" id="svg2211" sodipodi:version="0.32" inkscape:version="0.45" width="364" height="525" version="1.0" sodipodi:docbase="F:\" sodipodi:docname="Foxprint.jpg" sodipodi:modified="true">
  <metadata id="metadata2216">
    <rdf:RDF>
      <cc:Work rdf:about="">
        <dc:format>image/svg+xml</dc:format>
        <dc:type rdf:resource="http://purl.org/dc/dcmitype/StillImage"/>
      </cc:Work>
    </rdf:RDF>
  </metadata>
  <defs id="defs2214"/>
  <sodipodi:namedview inkscape:window-height="721" inkscape:window-width="1024" inkscape:pageshadow="2" inkscape:pageopacity="0.0" guidetolerance="10.0" gridtolerance="10.0" objecttolerance="10.0" borderopacity="1.0" bordercolor="#666666" pagecolor="#ffffff" id="base" inkscape:zoom="0.50911688" inkscape:cx="74.709479" inkscape:cy="164.21602" inkscape:window-x="-4" inkscape:window-y="-4" inkscape:current-layer="svg2211"/>
  <path style="fill:#000000" d="M 249,443.57397 C 234.79932,435.48971 215.87146,433.68769 199.27898,437.73044 C 179.34078,446.14433 161.38391,427.88772 142.36651,434.57769 C 128.12204,441.01025 108.92051,450.06847 96.209695,436.1477 C 79.615918,423.81298 89.906152,401.39521 100.13403,388.48053 C 110.92566,372.82923 125.23038,359.58161 134.77576,343.41005 C 147.68579,332.61963 156.24308,311.86976 174.11299,309.30055 C 194.42535,305.34081 210.14368,319.64065 216.76482,336.94267 C 230.89363,349.74617 240.07508,366.23509 256.7585,376.14261 C 268.05365,390.06703 287.44715,401.73558 290.07967,420.10941 C 290.39613,435.46143 270.48022,445.13164 256.30063,444.81266 C 254.26548,444.40353 249.73815,446.34104 249,443.57397 z M 64,323.2449 C 46.112898,316.2034 31.111277,299.7821 29.666281,279.95986 C 22.465037,262.87123 17.16643,247.01244 31.423663,231.3788 C 43.228527,216.03335 63.766477,225.78952 78.113388,231.98612 C 97.784728,234.87309 110.89281,251.36558 117.9839,268.52947 C 121.44503,286.74755 108.01288,305.14364 93,313.89028 C 85.388322,321.15677 74.4603,325.81495 64,323.2449 z M 262.5,306.04309 C 245.403,301.51187 229.15959,294.33501 219.33706,278.78072 C 214.66206,260.61447 244.91536,259.33154 250.23588,243.15617 C 264.76397,229.30957 281.87433,218.16481 298.16911,206.3107 C 309.8037,191.75793 330.20704,212.39883 326.29118,227.03499 C 325.871,236.41984 328.97302,246.49143 323.51691,254.89706 C 317.09472,269.66278 315.57389,293.32923 297.28893,296.952 C 288.07855,306.34057 275.13237,308.07713 262.5,306.04309 z M 28.65913,206.29317 C 23.820334,202.24881 29.242552,172.73774 33.579281,182.8898 C 35.169905,190.98467 46.685001,211.88834 28.65913,206.29317 z M 126.99498,198.96608 C 111.90024,193.68851 95.010362,179.11522 96.729079,161.74795 C 101.43818,144.43441 107.12644,127.47963 118.53676,113.14174 C 126.14731,95.731532 138.48573,78.260502 157.08588,71.299411 C 179.55041,70.57639 175.53835,100.49349 173.31874,115.41473 C 171.18508,129.00415 174.67672,143.25909 171.97596,156.60699 C 166.73449,170.51876 163.29153,185.39023 154.97357,197.88135 C 146.39044,201.20807 136.02803,199.90231 126.99498,198.96608 z M 231.20924,190.4425 C 217.75345,188.08211 210.79359,175.13685 206.50675,163.68511 C 206.90133,139.51759 206.19592,115.29912 207.71127,91.17514 C 210.28404,70.343761 240.3545,65.593042 251.70153,81.740234 C 263.28106,91.899931 267.92355,105.08231 274.44665,119.2854 C 281.86153,133.725 293.7671,152.64126 283.02111,168.1054 C 276.58154,175.89318 268.33815,182.57071 262.89844,187.24082 C 254.50489,194.63438 241.20438,193.04633 231.20924,190.4425 z M 313.60196,182.11267 C 304.46419,169.03619 321.35444,149.55264 326.84769,171.08892 C 333.04619,186.44582 322.89249,184.57108 313.60196,182.11267 z M 166,45.5 C 160.55259,34.043111 172.15861,26.312708 176.57696,17.460041 C 180.55241,23.958153 183.57258,54.646444 166,45.5 z M 204,43.06955 C 193.04526,38.462767 209.58825,24.88301 208.44348,16.952295 C 215.06919,22.337506 218.26405,47.948965 204,43.06955 z " id="path2220"/>
</svg>